<?xml version="1.0" standalone="no"?>
<!DOCTYPE svg PUBLIC "-//W3C//DTD SVG 20010904//EN"
 "http://www.w3.org/TR/2001/REC-SVG-20010904/DTD/svg10.dtd">
<svg version="1.0" xmlns="http://www.w3.org/2000/svg"
 width="300.000000pt" height="232.000000pt" viewBox="0 0 300.000000 232.000000"
 preserveAspectRatio="xMidYMid meet">
<metadata>
Created by potrace 1.10, written by Peter Selinger 2001-2011
</metadata>
<g transform="translate(0.000000,232.000000) scale(0.100000,-0.100000)"
fill="#ffffff" stroke="none">
<path d="M1681 1895 c-27 -24 -42 -32 -47 -24 -5 8 -9 7 -16 -5 -11 -19 -33
-20 -108 -4 -77 16 -125 3 -163 -45 -17 -20 -28 -39 -26 -42 3 -2 30 0 60 4
29 5 56 7 59 4 2 -2 -10 -15 -28 -29 -21 -17 -32 -34 -32 -52 0 -15 -7 -36
-15 -46 -8 -11 -15 -29 -15 -39 0 -15 17 -1 63 48 34 38 62 76 62 84 0 9 10
17 23 19 13 2 21 9 19 15 -5 15 -72 27 -108 20 -42 -8 -44 15 -2 26 42 12 180
3 190 -12 3 -5 -31 -42 -75 -83 -44 -40 -89 -92 -100 -115 -18 -37 -77 -89
-100 -89 -15 0 -59 -53 -101 -124 -50 -83 -71 -168 -71 -286 0 -52 -4 -92 -11
-95 -19 -12 -159 -232 -185 -291 -35 -79 -24 -90 20 -21 29 44 42 57 62 57 20
0 28 9 44 45 21 48 47 65 30 19 -12 -31 -12 -34 0 -34 5 0 18 31 30 70 11 38
25 72 29 75 5 3 34 43 65 89 59 90 153 192 198 215 46 24 42 6 -7 -40 -25 -24
-56 -62 -68 -86 -12 -23 -39 -69 -59 -101 -44 -69 -68 -153 -68 -237 0 -77 10
-135 22 -135 6 0 7 11 4 24 -8 34 4 86 20 86 8 0 14 8 14 17 0 13 3 14 11 6
26 -26 34 -3 31 87 -5 108 12 122 22 19 10 -96 20 -79 17 29 -2 79 1 94 28
156 27 58 33 66 46 56 13 -10 15 -9 15 9 0 18 -4 21 -22 16 -13 -4 -30 -16
-39 -27 -9 -12 -19 -16 -22 -11 -9 15 59 76 89 79 14 2 34 10 43 18 22 20 31
20 31 2 0 -7 6 -19 13 -25 8 -6 12 -23 10 -38 -5 -33 38 -110 45 -81 3 15 7
16 24 7 19 -10 20 -9 14 23 -7 37 9 98 26 98 6 0 8 -11 4 -24 -4 -17 -1 -26
10 -30 9 -4 14 -13 10 -21 -3 -8 0 -15 6 -15 7 0 8 -14 4 -41 -6 -35 -4 -40 9
-36 18 8 20 -4 3 -21 -9 -9 -9 -12 0 -12 26 0 45 79 20 81 -7 0 -3 4 10 9 17
7 22 18 22 47 l1 38 14 -30 13 -30 1 35 c1 20 -6 45 -14 57 -23 32 0 38 24 6
14 -17 18 -30 12 -36 -16 -16 -1 -34 25 -29 50 9 22 122 -31 122 -13 0 -27 -4
-30 -10 -3 -5 -15 -10 -26 -10 -16 0 -19 -7 -19 -50 0 -27 -4 -50 -9 -50 -11
0 -21 51 -21 111 0 34 -4 49 -13 49 -18 0 -88 -175 -80 -197 4 -11 2 -14 -8
-11 -23 7 -23 82 0 133 19 44 19 45 1 45 -10 0 -22 -4 -25 -10 -10 -17 -25
-11 -25 10 0 27 -14 25 -34 -5 -9 -14 -21 -25 -26 -25 -13 0 -65 98 -56 107
12 12 48 -12 61 -40 13 -31 14 -30 7 28 -3 33 -5 69 -4 80 1 11 3 34 5 50 2
31 13 55 25 55 4 0 6 -37 4 -82 -3 -103 3 -115 52 -98 32 10 40 10 57 -6 16
-14 25 -16 54 -7 30 10 35 9 36 -5 1 -10 3 -24 4 -32 1 -8 3 -21 4 -28 0 -7 6
-10 12 -6 8 4 9 22 4 53 -12 75 -12 161 1 161 13 0 26 -105 18 -152 -5 -31 -5
-32 10 -14 16 20 23 155 10 203 l-6 22 -35 -23 c-19 -13 -41 -33 -49 -45 -19
-27 -35 -27 -57 0 -23 26 -17 58 23 122 29 46 32 47 78 47 36 0 54 5 67 20 10
11 26 20 36 20 10 0 21 5 24 10 3 6 15 10 25 10 23 0 40 28 40 69 0 37 -9 61
-23 61 -6 0 -18 7 -28 16 -13 12 -22 13 -38 5 -26 -14 -84 5 -61 19 12 8 11
10 -5 10 -12 0 -26 -5 -32 -11 -7 -7 -19 -9 -28 -6 -14 6 -14 9 0 37 14 27 14
30 0 30 -8 0 -33 -16 -54 -35z m19 -25 c-9 -17 -8 -20 14 -20 34 0 38 -11 16
-47 -14 -23 -27 -32 -57 -35 -21 -3 -42 -2 -47 2 -8 8 18 51 58 98 24 27 30
28 16 2z m133 -37 c15 -9 -46 -63 -70 -63 -25 0 -28 7 -14 29 5 8 18 12 31 8
14 -3 20 -1 17 6 -2 7 -12 11 -21 11 -16 -2 -21 8 -10 19 7 6 50 -1 67 -10z
m88 -22 c4 -3 9 -18 13 -33 4 -20 1 -30 -11 -37 -10 -6 -13 -11 -8 -12 6 -1
-15 -7 -45 -13 -42 -9 -55 -16 -54 -29 1 -11 -6 -17 -20 -17 -34 0 -38 11 -11
32 14 11 25 29 25 40 0 12 11 36 26 55 21 28 30 32 52 27 15 -4 30 -9 33 -13z
m-311 -89 c0 -10 -14 -26 -31 -36 -17 -10 -58 -46 -90 -79 -33 -33 -59 -56
-59 -51 0 21 63 102 112 146 53 47 68 51 68 20z m180 13 c0 -11 -10 -15 -32
-15 -46 1 -98 -11 -98 -21 0 -15 -28 -10 -34 7 -11 29 -6 33 42 37 109 8 122
8 122 -8z m-110 -80 c0 -2 -15 -33 -34 -67 -19 -35 -37 -79 -41 -98 -3 -19 -9
-43 -11 -52 -8 -28 14 -21 29 8 16 30 29 20 33 -25 5 -43 20 -44 44 -4 14 23
25 33 28 25 2 -8 -1 -19 -7 -25 -6 -6 -11 -21 -11 -33 0 -34 -16 -38 -54 -14
-24 14 -43 19 -60 14 l-26 -6 0 73 c0 64 4 78 32 123 38 61 58 86 70 86 4 0 8
-2 8 -5z m-99 -64 c-7 -11 -20 -21 -30 -21 -52 0 -141 -162 -141 -255 0 -54
-1 -55 -42 -81 -24 -15 -64 -45 -90 -67 -62 -52 -72 -44 -66 53 3 59 11 91 32
133 34 67 125 160 144 148 11 -7 8 -17 -13 -51 -46 -73 -19 -55 33 23 28 40
74 95 103 121 45 41 54 45 67 33 11 -12 11 -19 3 -36z"/>
<path d="M1476 1105 c7 -17 -21 -21 -31 -5 -4 6 -10 8 -15 5 -10 -6 44 -91 63
-98 8 -2 12 -28 13 -73 2 -86 2 -84 15 -84 7 0 9 11 6 26 -3 16 0 28 9 31 8 3
14 13 14 22 0 9 8 27 17 41 18 26 21 25 -32 4 -20 -8 -19 5 5 44 26 43 25 65
-1 30 -22 -29 -45 -38 -36 -14 3 7 0 19 -6 25 -9 9 -8 14 2 21 12 7 12 11 2
24 -17 20 -32 21 -25 1z"/>
<path d="M1781 1073 c-8 -18 -9 -28 -2 -32 7 -4 1 -25 -14 -56 -14 -26 -25
-56 -25 -66 0 -9 -5 -19 -10 -21 -10 -3 8 -96 40 -208 8 -28 6 -38 -9 -55 -23
-26 -33 -53 -21 -60 6 -4 10 -15 10 -26 0 -10 5 -19 11 -19 7 0 8 11 4 29 -8
36 12 82 26 60 14 -22 10 -67 -7 -94 -9 -13 -14 -30 -12 -36 2 -7 14 4 26 24
23 35 23 36 6 119 -20 105 -21 130 -1 198 18 59 23 150 8 150 -4 0 -8 -25 -8
-56 0 -37 -5 -61 -16 -71 -14 -15 -15 -9 -10 63 4 72 8 81 34 105 31 27 31 47
0 66 -16 10 -20 8 -30 -14z"/>
<path d="M1413 983 c-13 -62 -7 -186 10 -219 8 -16 27 -41 41 -55 23 -23 24
-28 11 -39 -12 -10 -17 -7 -27 14 -6 15 -17 25 -24 22 -7 -3 -17 8 -23 25 -13
38 -36 40 -25 2 11 -39 11 -105 0 -121 -5 -7 -10 -47 -12 -90 -3 -70 -2 -73 7
-34 17 70 25 48 17 -45 -8 -88 -2 -203 10 -203 4 0 7 53 8 118 1 136 12 185
57 243 50 66 58 63 55 -23 -4 -116 37 -179 102 -157 23 9 43 8 76 -1 39 -11
47 -11 64 5 11 10 20 21 20 25 0 3 -42 6 -92 5 -51 -1 -99 0 -105 3 -17 6 -33
68 -26 103 11 54 -6 99 -51 141 -59 53 -79 108 -73 200 2 40 7 83 12 96 5 17
4 22 -8 22 -10 0 -19 -13 -24 -37z"/>
<path d="M1587 943 c-4 -3 -7 -18 -7 -32 -1 -14 -7 -43 -14 -63 -11 -30 -11
-38 -1 -38 9 0 11 -18 7 -71 -3 -40 0 -80 6 -92 6 -12 13 -40 16 -61 5 -37 22
-60 37 -50 4 2 7 24 7 48 -1 38 -4 43 -21 38 -17 -4 -18 -1 -12 29 7 31 6 33
-10 19 -17 -14 -18 -12 -12 35 7 57 22 131 32 158 5 12 2 17 -8 17 -12 0 -14
8 -10 35 6 34 3 42 -10 28z"/>
<path d="M1680 581 c0 -40 -16 -71 -36 -71 -9 0 -14 -6 -12 -12 3 -7 23 -14
47 -15 36 -1 41 1 36 15 -4 10 -10 36 -15 60 -10 54 -20 65 -20 23z"/>
</g>
</svg>
